<svg width="200" height="200" xmlns="http://www.w3.org/2000/svg" version="1.2">
 <g>
  <title>Layer 1</title>
  <g id="svg_3">
   <path id="svg_1" fill="#1890ff" d="m0,99.78329c0,-95.23599 5.00053,-100.24841 100.01057,-100.24841s100.01057,5.01242 100.01057,100.24841s-5.00053,100.24841 -100.01057,100.24841s-100.01057,-5.01242 -100.01057,-100.24841"/>
   <ellipse ry="12" rx="12" id="svg_11" cy="58.29631" cx="32" stroke-width="0" fill="#f7bbad"/>
   <path stroke-width="0" id="svg_8" d="m93.95286,49.02974l0,18.35821l-49.1847,0.25c0,-6.21265 -0.00001,-12.3003 -0.00001,-18.51295l49.18471,-0.09526z" fill="#f7bbad"/>
   <path id="svg_2" d="m22.56795,130.89018l43.87598,-60.93021l25.59225,0.03188l-45.28217,60.43324l51.47286,-0.15504l0,-81.2403l20.46511,0l0.15504,39.2248l37.54324,-0.15504l-0.00239,-39.06738l20.25377,0l0.00949,101.3127l-20.26088,0.0605l0,-43.79121l-37.58771,0.22142l-0.2656,43.58955l-95.96899,-0.15504l-0.00001,-19.37986l0.00001,-0.00001z" stroke-width="0" fill="#fff"/>
  </g>
 </g>

</svg>